<svg xmlns="http://www.w3.org/2000/svg" xmlns:xlink="http://www.w3.org/1999/xlink" version="1.1" id="Layer_1" x="0px" y="0px" width="100%" viewBox="0 0 1024 1024" enable-background="new 0 0 1024 1024" xml:space="preserve">
<path fill="#ff9801" opacity="1.000000" stroke="none" d=" M137.705200,568.927490   C146.170135,540.107605 159.571106,514.498230 180.505630,493.241150   C196.177734,477.327606 213.519363,463.655029 234.613953,455.515991   C238.494858,454.018616 239.310150,451.227264 239.618988,447.776459   C242.134445,419.669250 254.208588,396.483673 275.836365,378.430176   C288.328735,368.002319 302.554352,360.943298 318.827881,358.594421   C323.030060,357.987854 324.943939,356.055511 325.740662,351.705261   C338.458099,282.266876 378.742645,235.072174 443.045197,207.751251   C466.134003,197.941254 490.574158,193.891815 515.634277,194.009583   C599.016846,194.401474 667.964294,246.011795 694.972290,316.503357   C699.324341,327.862488 702.552612,339.571198 704.378174,351.608398   C705.005127,355.741638 706.667236,357.823761 711.055054,358.615601   C746.203857,364.958923 769.278687,386.185516 783.314880,418.166565   C787.347595,427.355011 789.670288,437.057404 790.426392,447.112122   C790.720337,451.020355 791.780762,453.969818 796.138977,455.963898   C844.066162,477.892822 875.306396,514.664185 891.111267,564.633545   C897.012390,583.290833 899.943359,602.660278 899.049866,622.203430   C896.965637,667.790466 881.726868,708.174866 850.694397,742.392212   C825.859436,769.775940 795.811279,788.624451 760.905151,799.969604   C742.758545,805.867676 723.957947,808.965820 704.914001,808.991028   C599.749573,809.130188 494.584351,809.103943 389.420624,808.758362   C369.927368,808.694275 350.440826,808.956360 330.953278,809.035828   C264.620148,809.306274 211.214661,782.670349 170.106415,731.328796   C150.176971,706.438171 138.913712,677.423523 133.499786,645.953369   C129.033752,619.993164 131.077408,594.590332 137.705200,568.927490  M796.737610,746.217896   C799.910339,743.786316 803.205200,741.497498 806.237549,738.901917   C850.689453,700.852966 872.539124,653.221497 863.452820,594.557800   C854.653198,537.745300 822.069763,499.117920 767.760376,479.366028   C757.511841,475.638672 755.494385,472.805328 756.899048,461.867279   C759.065674,444.995148 754.673279,429.815399 744.891479,416.191101   C729.355896,394.552734 705.178284,385.448029 681.944153,392.145477   C675.948975,393.873627 672.658020,391.426239 672.787476,385.098206   C672.848328,382.123810 673.662537,379.157074 673.643799,376.189972   C673.462463,347.460938 664.206848,321.472687 648.215637,298.055237   C622.050781,259.739563 586.285950,236.008560 539.897522,229.067413   C513.025879,225.046570 486.733948,227.040924 461.154480,236.176605   C417.358429,251.818359 386.200958,281.181122 367.915070,323.896057   C359.782471,342.893311 354.858765,362.649475 357.492249,383.638580   C358.441101,391.200958 354.844604,394.261322 347.573395,392.239044   C335.972137,389.012482 324.558319,389.483582 313.300598,393.822876   C290.542633,402.594879 268.029755,431.584595 273.448303,464.568756   C274.558502,471.326996 272.074493,475.362061 265.829071,477.903229   C264.133759,478.593048 262.403809,479.204193 260.668549,479.788452   C195.835022,501.618134 154.171814,570.855774 166.675934,642.423889   C175.478516,692.806152 203.219910,730.317078 247.779602,755.196045   C267.295898,766.092529 288.209442,773.995117 310.708374,774.487793   C349.854095,775.345032 389.028900,774.835693 428.190704,775.050293   C432.542603,775.074158 433.918610,773.678162 433.909668,769.288513   C433.761414,696.459473 433.766266,623.630066 433.689911,550.800842   C433.688141,549.100830 434.428009,547.090332 432.549927,545.748169   C430.096893,545.918213 428.136566,547.289307 426.008972,548.194946   C410.929871,554.613586 396.382751,553.660522 382.707886,544.556824   C364.797882,532.633728 354.786438,503.165558 372.889679,480.705536   C380.102753,471.756531 387.486664,462.937408 395.038544,454.273376   C397.742523,451.171204 397.627838,449.346191 394.465820,446.618683   C384.882294,438.351959 375.524841,429.817993 366.223022,421.232483   C362.645203,417.930145 360.787720,413.627228 361.285522,408.658661   C362.546844,396.068909 375.935516,389.813568 386.191864,397.391174   C392.459351,402.021820 397.930756,407.727539 403.778809,412.928955   C409.970825,418.436249 416.185455,423.918091 422.570770,429.570953   C438.018860,415.385315 455.477295,405.587006 476.583954,400.586548   C463.596191,387.816406 456.643250,373.709839 455.933899,357.017731   C455.216034,340.124969 460.453156,325.185089 472.293274,312.863831   C491.702789,292.665649 523.606873,288.763062 546.467957,303.741211   C558.284607,311.483246 566.869812,321.752991 571.132751,335.409882   C579.074829,360.853394 571.885803,382.367554 553.223083,400.986938   C554.745056,401.495789 555.361450,401.725311 555.991638,401.907104   C556.949585,402.183411 557.910156,402.456482 558.881470,402.679688   C577.335083,406.920044 592.760132,416.347504 605.417847,430.276672   C625.219238,452.067078 634.928162,477.818817 634.873779,507.224426   C634.835571,527.885315 634.691711,548.546753 634.450195,569.206177   C634.378845,575.304810 635.403259,581.649719 632.047119,587.286743   C630.277405,590.259155 631.363708,592.066040 633.698975,594.040955   C639.802429,599.202698 645.895508,604.395874 651.686462,609.898865   C654.005432,612.102539 655.674011,612.121887 658.109497,610.440247   C663.029358,607.043152 668.402039,604.940430 674.547791,605.814636   C683.162598,607.039856 691.558472,609.039001 699.264771,613.261780   C701.097290,614.265930 702.766052,614.830505 704.909546,613.982422   C715.117493,609.943665 724.516357,612.353821 733.435730,617.887512   C747.308899,626.494568 761.167175,635.125732 775.017395,643.769714   C777.423157,645.271179 779.729248,646.915649 781.550415,649.146667   C788.171082,657.257263 787.297668,666.955811 778.746948,676.088684   C752.435242,704.191833 724.344543,730.541382 697.602661,758.222839   C687.017212,769.180115 674.712280,768.353943 666.004272,755.896423   C656.173523,741.832703 646.756836,727.481750 636.421814,713.768555   C631.770569,707.596863 629.904602,700.609131 632.046997,693.044861   C632.905579,690.013245 632.434265,687.637695 630.998352,685.003967   C627.332214,678.279480 626.924194,671.040100 628.230042,663.640137   C628.695923,661.000427 629.169250,658.445251 628.110413,655.793518   C625.690857,649.733521 625.940247,643.639526 628.976807,637.925720   C630.576660,634.915283 629.932739,633.188721 627.476257,631.198486   C621.522522,626.375000 615.486389,621.602478 609.980042,616.294434   C606.002747,612.460449 602.185974,614.514465 598.415405,615.623108   C594.898010,616.657288 596.255127,620.124573 596.251587,622.556152   C596.181213,671.219971 596.284912,719.884216 596.104065,768.547363   C596.084900,773.691406 597.675293,775.058044 602.641907,775.037842   C633.972656,774.910034 665.306030,774.911438 696.634949,775.226929   C705.142151,775.312622 713.687561,775.484558 722.058167,774.428284   C748.892151,771.041809 773.729919,761.966309 796.737610,746.217896  M487.507080,515.017029   C483.969727,512.385437 481.122650,508.832306 477.967133,507.246185   C475.341705,509.497681 473.386688,511.653046 471.002960,513.104126   C467.604370,515.172974 466.053864,517.681885 466.978668,521.687439   C467.308044,523.114258 467.067780,524.675110 467.068207,526.174805   C467.085571,588.998230 467.096527,651.821716 467.118774,714.645142   C467.125153,732.642151 467.282043,750.640320 467.105804,768.635376   C467.060364,773.275024 468.304901,775.285583 473.283752,774.968018   C479.257751,774.587036 485.276001,774.922363 491.274963,774.905457   C497.954468,774.886658 497.982330,774.854370 497.972961,768.238281   C497.933838,740.575989 497.878784,712.913696 497.839905,685.251404   C497.806427,661.421814 497.786499,637.592224 497.761505,613.762634   C497.748535,601.371033 500.174652,598.972351 512.717957,598.976135   C515.550842,598.976990 518.384338,598.949890 521.216492,598.999207   C528.711060,599.129700 531.791687,602.033936 532.038452,609.634338   C532.238403,615.793579 532.091980,621.964294 532.090332,628.129883   C532.077393,674.955872 532.119690,721.782104 531.959229,768.607605   C531.943054,773.314392 533.191956,775.245667 538.123535,774.962769   C544.268982,774.610229 550.466125,774.606262 556.610718,774.966736   C561.521179,775.254700 562.764160,773.386719 562.750977,768.660767   C562.605713,716.502563 562.598389,664.343567 562.766357,612.185425   C562.783508,606.854004 561.530884,602.675964 557.853271,598.745911   C551.614380,592.078552 548.145264,583.849060 548.051331,574.773560   C547.998596,569.675049 546.066467,566.433228 542.565552,563.222107   C524.756714,546.887329 506.290283,531.308472 487.507080,515.017029  M499.740112,469.290649   C495.421692,469.959778 493.104034,467.918488 491.379089,464.027008   C487.263489,454.742065 482.783752,445.617645 478.390900,436.457245   C477.559021,434.722504 477.187073,432.582214 474.563629,431.562714   C471.194305,434.117188 466.531036,435.299255 463.838715,439.732544   C465.412567,440.696411 466.627991,441.559326 467.942444,442.227356   C480.534027,448.626160 488.307190,458.567657 490.335632,472.699615   C490.572937,474.352783 491.467499,475.391510 492.607788,476.405914   C507.544189,489.693970 522.414856,503.057037 537.454163,516.227478   C540.235291,518.663086 542.588562,521.871399 546.424927,523.030457   C547.989319,521.325562 547.690247,519.431885 547.700867,517.638123   C547.735474,511.805389 547.651367,505.971130 547.750061,500.139832   C547.865112,493.344696 551.580566,489.259552 558.343811,488.660767   C562.648926,488.279663 566.988281,488.140015 571.311951,488.146454   C578.779114,488.157562 581.249939,490.614990 581.279419,498.010223   C581.333008,511.509033 581.281372,525.008240 581.286255,538.507263   C581.290527,550.173096 581.248108,561.839539 581.357178,573.504456   C581.402344,578.338623 584.647827,582.163696 589.174500,583.222046   C593.454468,584.222717 598.281738,581.842896 600.492615,577.732666   C601.812317,575.279236 601.948242,572.639160 601.943420,569.964417   C601.903564,547.633057 601.867798,525.301636 601.789429,502.970367   C601.778381,499.809692 601.958862,496.567322 601.348572,493.502594   C596.432373,468.814514 583.591980,449.245880 562.839233,434.970184   C560.598816,433.429016 558.406921,431.509857 555.167419,431.032898   C554.065857,433.203369 553.004883,435.255371 551.977844,437.324219   C547.459167,446.426270 542.853394,455.487122 538.487244,464.661896   C536.835144,468.133667 534.558777,469.463196 530.678162,469.369446   C520.684753,469.128113 510.681549,469.290314 499.740112,469.290649  M726.848145,686.398621   C728.241638,684.787048 730.230713,683.681946 731.134033,681.317627   C724.545044,674.056274 717.017029,667.501221 711.647400,658.952515   C718.979919,661.617126 725.881653,664.799561 732.761841,668.027710   C740.441772,671.630981 742.088440,671.069275 746.316162,662.908936   C736.959045,656.497498 727.550537,650.050781 717.779785,643.355896   C707.944336,653.053101 698.306641,662.445679 688.797058,671.966125   C681.272217,679.499573 673.908630,687.193787 666.464355,694.807800   C664.839539,696.469727 663.720825,698.079895 665.501160,700.425903   C671.334412,708.112427 677.065063,715.876770 682.869629,723.585327   C683.544312,724.481262 684.338379,725.878540 685.597290,725.360413   C689.100159,723.918579 691.237366,720.802551 693.610046,718.057922   C695.294312,716.109680 693.231506,714.663757 692.430176,713.202271   C688.991699,706.931091 685.381287,700.754333 681.934082,694.487793   C681.287903,693.313171 679.767822,692.257324 680.975281,690.067993   C682.727600,691.011658 684.500305,691.830261 686.131897,692.870361   C691.180847,696.089172 696.346069,699.163818 701.139648,702.733032   C705.176941,705.738953 708.085266,705.898804 711.620850,701.790649   C716.166565,696.508606 721.405029,691.822632 726.848145,686.398621  M518.806458,381.587830   C538.684692,375.936432 547.198730,356.061157 536.680481,339.862671   C530.293274,330.026123 518.142883,325.289062 507.617950,328.532166   C496.767700,331.875488 487.845184,343.982422 488.389282,355.079987   C489.103210,369.641418 502.591888,384.105865 518.806458,381.587830  M449.779541,489.273651   C451.440369,487.418976 453.324921,485.717621 454.720673,483.681213   C459.180054,477.175079 455.883057,469.013336 448.186951,467.423920   C444.478333,466.657990 440.789978,467.031708 437.699677,469.407196   C425.569244,478.731750 413.373077,487.980316 401.501892,497.626953   C397.879669,500.570374 395.438507,504.792755 397.224487,510.001862   C400.430725,519.353516 408.947845,522.259827 416.972137,516.483215   C428.329742,508.306885 438.363922,498.503784 449.779541,489.273651  M689.025146,633.414001   C683.024292,633.388184 677.043823,633.079346 671.192139,631.642273   C668.795654,631.053711 666.991821,631.805359 665.349609,633.476013   C661.146667,637.751831 656.977844,642.065674 652.648987,646.211426   C650.799622,647.982727 650.398071,649.675720 651.545105,651.936646   C653.849670,656.478943 653.591003,661.231079 652.691528,666.082458   C652.255127,668.435974 651.554688,670.992371 654.166077,673.656067   C667.440063,661.006409 680.123718,647.971924 692.715271,633.891418   C690.999756,633.660583 690.348267,633.572876 689.025146,633.414001  M510.665466,432.873016   C511.918976,435.153503 512.401489,437.872192 514.879578,440.170105   C519.794617,432.397308 522.953918,424.179077 526.065491,415.177155   C518.204285,415.609680 511.013763,415.669556 503.410461,415.015167   C505.210876,421.454712 507.960175,426.756226 510.665466,432.873016  z"/>
</svg>